# xmcd CD database file
#
# Track frame offsets:
#	150
#	23712
#	45417
#
# Disc length: 917 seconds
#
# Revision: 0
# Processed by: cddbd v1.5.1PL0 Copyright (c) Steve Scherf et al.
# Submitted via: CDex 1.51
#
DISCID=17039303
DTITLE=ORIGINAL LOVE - THE VENUS
DYEAR=1992
DGENRE=JPop
TTITLE0=ヴィーナス
TTITLE1=スクランブル
TTITLE2=ヴィーナス (Instrumental Version)
EXTD=YEAR: 1992
EXTT0=
EXTT1=
EXTT2=
PLAYORDER=
